# xmcd CD database file
# Copyright (C) 1993-2000  Ti Kan
#
# Track frame offsets:
#	210
#	2444
#	11888
#	23498
#	40473
#	51651
#	63939
#	73098
#	84958
#	105073
#	106708
#	114943
#	119394
#	127029
#	141678
#	143496
#	148237
#	156114
#	172141
#	190508
#	217981
#	238843
#	247444
#	253305
#	260692
#	268947
#
# Disc length: 3731 seconds
#
# Revision: 1
# Processed by: cddbd v1.5.1PL0 Copyright (c) Steve Scherf et al.
# Submitted via: xmcd 2.6 PL0
#
DISCID=850e911a
DTITLE=Lead Belly - Private Party
DYEAR=1900
DGENRE=
TTITLE0=Nobody In The World Is Better Than Us
TTITLE1=Story
TTITLE2=Jim Crow
TTITLE3=Tuning - Introduction To The Gallis Pole
TTITLE4=Samuel Hall
TTITLE5=Jean Harlow
TTITLE6=I Ain't Goin' Down To The Well No More
TTITLE7=Mississippi River
TTITLE8=Fannin Street
TTITLE9=Dicky
TTITLE10=Old Black Crow
TTITLE11=Pig Latin Song
TTITLE12=Hawaiian Song
TTITLE13=John Henry
TTITLE14=Goodnight Irene
TTITLE15=The Grey Goose
TTITLE16=Ain't It A Shame
TTITLE17=Tuning - Talk About Stewball - Stewball
TTITLE18=Bourgeois Blues
TTITLE19=Talk About Governor And Writing The Song - Governor Pat Neff
TTITLE20=Talk About Louisiana And Governor Allen - Governor O.K. Allen
TTITLE21=A Lesson In History
TTITLE22=Lake Superior
TTITLE23=Mississippi River (No. 2)
TTITLE24=Down In Louisiana
TTITLE25=Goodnight Irene
EXTD=Document Records DOCD-5664\nMinneapolis, MN\nNovember 21 1948
EXTT0=
EXTT1=
EXTT2=
EXTT3=
EXTT4=
EXTT5=
EXTT6=
EXTT7=
EXTT8=
EXTT9=
EXTT10=
EXTT11=
EXTT12=
EXTT13=
EXTT14=
EXTT15=
EXTT16=
EXTT17=
EXTT18=
EXTT19=
EXTT20=
EXTT21=
EXTT22=
EXTT23=
EXTT24=
EXTT25=
PLAYORDER=
